<?xml version="1.0" encoding="utf-8"?>
<!-- Generator: Adobe Illustrator 16.0.0, SVG Export Plug-In . SVG Version: 6.00 Build 0)  -->
<!DOCTYPE svg PUBLIC "-//W3C//DTD SVG 1.1//EN" "http://www.w3.org/Graphics/SVG/1.1/DTD/svg11.dtd">
<svg version="1.1" id="Lager_1" xmlns="http://www.w3.org/2000/svg" xmlns:xlink="http://www.w3.org/1999/xlink" x="0px" y="0px"
	 width="249.24px" height="86.438px" viewBox="0 0 249.24 86.438" enable-background="new 0 0 249.24 86.438" xml:space="preserve">
<g>
	<g>
		<path fill="#BC1F40" d="M246.799,48.535c-1.635-3.474-3.922-6.478-6.891-9.006c-2.705-2.278-5.75-4.008-9.154-5.19
			c-3.4-1.185-7.068-1.778-11.012-1.778c-3.932,0-7.592,0.582-10.982,1.753c-3.389,1.167-6.426,2.909-9.125,5.215
			c-2.994,2.566-5.32,5.572-6.967,9.033c-1.643,3.461-2.453,7.104-2.453,10.933c0,3.809,0.811,7.446,2.453,10.94
			c1.646,3.49,3.973,6.502,6.967,9.033c2.699,2.307,5.736,4.049,9.125,5.213c3.393,1.172,7.053,1.756,10.982,1.756
			c3.941,0,7.609-0.594,11.012-1.774c3.404-1.191,6.424-2.916,9.061-5.193c3.023-2.631,5.352-5.662,6.984-9.104
			c1.625-3.441,2.441-7.062,2.441-10.871C249.24,55.668,248.424,52.009,246.799,48.535 M229.299,59.474
			c0,5.363-4.352,9.715-9.717,9.715c-5.363,0-9.707-4.352-9.707-9.715c0-5.362,4.344-9.715,9.707-9.715
			C224.947,49.759,229.299,54.112,229.299,59.474"/>
		<path fill="#BC1F40" d="M149.934,82.494c1.211,0.791,2.48,1.455,3.812,1.998c2.875,1.166,5.982,1.752,9.324,1.752
			c3.35,0,6.461-0.59,9.34-1.775c2.891-1.184,5.455-2.914,7.691-5.188c2.568-2.636,4.545-5.666,5.924-9.105
			c1.381-3.438,2.068-7.062,2.068-10.861c0-3.832-0.688-7.491-2.068-10.965c-1.379-3.471-3.328-6.479-5.838-9.012
			c-2.297-2.272-4.889-4.001-7.777-5.187c-2.879-1.186-5.99-1.781-9.34-1.781c-3.342,0-6.449,0.586-9.324,1.756
			c-1.32,0.539-2.582,1.196-3.779,1.979V18.752h17.066V11.61L151.926,0.001h-36.378v18.814h13.095v67.128h21.324L149.934,82.494z
			 M167.842,59.474c0,5.363-4.354,9.715-9.713,9.715c-5.365,0-9.715-4.352-9.715-9.715c0-5.362,4.35-9.715,9.715-9.715
			C163.488,49.759,167.842,54.112,167.842,59.474"/>
		<path fill="#BC1F40" d="M101.945,82.474v3.427h20.771V33.827h-20.771v2.23c-0.98-0.557-2.115-1.292-3.168-1.719
			c-2.969-1.185-6.174-1.778-9.604-1.778c-3.442,0-6.639,0.582-9.596,1.753c-2.952,1.167-5.609,2.909-7.966,5.215
			c-2.618,2.566-4.637,5.572-6.076,9.033c-1.432,3.461-2.146,7.104-2.146,10.933c0,3.809,0.715,7.446,2.146,10.94
			c1.439,3.49,3.458,6.502,6.076,9.033c2.355,2.307,5.015,4.049,7.966,5.213c2.957,1.172,6.151,1.756,9.596,1.756
			c3.433,0,6.679-0.496,9.604-1.774C99.964,84.14,101.084,83.384,101.945,82.474 M102.473,59.474c0,5.363-4.349,9.715-9.709,9.715
			c-5.365,0-9.716-4.352-9.716-9.715c0-5.362,4.351-9.715,9.716-9.715C98.125,49.759,102.473,54.112,102.473,59.474"/>
		<path fill="#BC1F40" d="M21.618,55.442V86H0V11.6h21.633v24.168l0.02,1.622c2.953-2.27,9.267-4.781,13.798-5.117
			c5.62-0.417,8.084-0.114,11.938,0.998c3.375,0.97,6.031,2.49,8.141,4.65c2.179,2.236,3.072,3.719,4.053,6.199
			c1.001,2.521,0.969,7.369,0.969,7.369l-0.023,34.416H38.799l0.114-30.793c-0.108-2.601-1.409-6.136-8.187-6.136
			C25.77,48.976,21.807,51.539,21.618,55.442"/>
	</g>
	<g>
		<path fill="none" stroke="#BB113E" stroke-width="0.9724" d="M246.699,25.005c0,3.14-2.547,5.685-5.686,5.685
			c-3.146,0-5.689-2.545-5.689-5.685c0-3.142,2.543-5.687,5.689-5.687C244.152,19.319,246.699,21.865,246.699,25.005z"/>
		<g>
			<path fill="#BC1F40" d="M242.725,28.521l-2.994-2.975v2.975h-0.918v-6.842h2.613c1.135,0,2.238,0.417,2.238,1.861
				c0,1.29-0.928,2.024-2.104,2.024h-0.6l3.021,2.956H242.725L242.725,28.521z M239.73,24.858h1.369c0.83,0,1.639-0.242,1.639-1.239
				c0-1.002-0.939-1.135-1.658-1.135h-1.35V24.858z"/>
		</g>
	</g>
</g>
</svg>
